<?xml version="1.0" encoding="utf-8"?>
<!-- Generator: Adobe Illustrator 16.0.0, SVG Export Plug-In . SVG Version: 6.00 Build 0)  -->
<!DOCTYPE svg PUBLIC "-//W3C//DTD SVG 1.1//EN" "http://www.w3.org/Graphics/SVG/1.1/DTD/svg11.dtd">
<svg version="1.1" id="Lion_1_" xmlns="http://www.w3.org/2000/svg" xmlns:xlink="http://www.w3.org/1999/xlink" x="0px" y="0px"
	 width="512px" height="512px" viewBox="0 0 512 512" enable-background="new 0 0 512 512" xml:space="preserve">
<circle id="Background_32_" fill="#FED579" cx="256" cy="256" r="256"/>
<path id="Shadow" opacity="0.1" d="M511.984,257.211l-76.983-76.984H247.299v331.61c2.89,0.097,5.788,0.163,8.701,0.163
	C396.98,512,511.331,398.038,511.984,257.211z"/>
<g id="Lion">
	<path fill="#DEA129" d="M0,256c0,141.386,114.615,256,256,256c18.905,0,37.326-2.068,55.064-5.957V256H0z"/>
	<path fill="#DEA129" d="M356.93,240.818c0-71.269-61.75-89.134-61.75-89.134c-11.834-3.5-26.955-5.325-47.88-5.325
		c-20.925,0-36.046,1.825-47.88,5.325c0,0-61.75,17.865-61.75,89.134c0,43.937-15.271,151.179,72.937,151.179
		c0,0,2.886,17.09,36.694,17.09s36.694-17.09,36.694-17.09C372.201,391.997,356.93,284.755,356.93,240.818z"/>
	<path opacity="0.1" d="M311.064,506.043v-77.6H136.659l80.648,80.648C229.926,511.005,242.847,512,256,512
		C274.905,512,293.326,509.932,311.064,506.043z"/>
	<g>
		<g>
			<path fill="#603913" d="M216.025,233.007l-25.088-2.509c0,23.717,28.225,18.816,28.225,18.816L216.025,233.007z"/>
			<circle fill="#FFBB43" cx="206.304" cy="240.116" r="7.262"/>
		</g>
		<g>
			<path fill="#603913" d="M278.573,233.007l25.088-2.509c0,23.717-28.224,18.816-28.224,18.816L278.573,233.007z"/>
			<circle fill="#FFBB43" cx="288.295" cy="240.116" r="7.263"/>
		</g>
	</g>
	<path opacity="0.1" d="M356.93,240.818c0-71.269-61.75-89.134-61.75-89.134c-11.834-3.5-26.955-5.325-47.88-5.325v262.728
		c33.808,0,36.694-17.09,36.694-17.09C372.201,391.997,356.93,284.755,356.93,240.818z"/>
	<path fill="#785716" d="M247.299,54.921c-57.235,0-188.754,97.357-188.754,131.095s40.975,204.905,75.77,240.505
		c7.741,7.92,25.764,5.899,33.814,13.576c30.82,29.39,62.02,54.323,79.17,54.323s48.35-24.934,79.17-54.323
		c8.05-7.677,26.073-5.656,33.813-13.576c34.796-35.6,75.771-206.767,75.771-240.505S304.534,54.921,247.299,54.921z
		 M247.299,408.696l-96.16-112.383l3.237-67.207l43.922-74.598l49,20.85l49-20.85l43.922,74.598l3.238,67.207L247.299,408.696z"/>
	<path fill="#DEB461" d="M210.605,347.698v44.299c0,0,2.886,17.09,36.694,17.09s36.694-17.09,36.694-17.09v-44.299H210.605z"/>
	<path fill="#DEB461" d="M275.807,315.468c-0.071,0-0.142,0.005-0.214,0.006c-2.886-12.972-14.453-14.646-28.293-14.646
		s-25.408,1.675-28.293,14.646c-0.072-0.001-0.143-0.006-0.214-0.006c-15.81,0-28.626,12.816-28.626,28.627
		c0,15.81,12.816,28.626,28.626,28.626c13.51,0,24.827-9.361,27.834-21.951c0.225,0.006,0.447,0.018,0.673,0.018
		s0.449-0.012,0.674-0.018c3.007,12.59,14.324,21.951,27.833,21.951c15.811,0,28.627-12.816,28.627-28.626
		C304.434,328.284,291.617,315.468,275.807,315.468z"/>
	<path opacity="0.1" d="M275.807,372.721c-13.51,0-24.827-9.361-27.833-21.951c-0.225,0.006-0.448,0.018-0.674,0.018
		s-0.449-0.012-0.673-0.018c-3.007,12.59-14.324,21.951-27.834,21.951c-15.234,0-27.684-11.902-28.571-26.914
		c-0.033,0.567-0.055,1.137-0.055,1.713c0,15.81,12.816,28.626,28.626,28.626c13.511,0,24.827-9.362,27.834-21.951
		c0.225,0.005,0.447,0.018,0.673,0.018s0.449-0.013,0.674-0.018c3.007,12.589,14.324,21.951,27.833,21.951
		c15.811,0,28.627-12.816,28.627-28.626c0-0.576-0.022-1.146-0.056-1.713C303.491,360.818,291.041,372.721,275.807,372.721z"/>
	<path opacity="0.1" d="M274.089,322.095c-2.688,6.604-7.941,7.94-7.941,7.94c0.657-0.907,1.169-1.771,1.456-2.56
		c0,0-0.489-5.382-2.936-5.382s-6.85,5.382-17.369,5.382s-14.922-5.382-17.369-5.382s-2.935,5.382-2.935,5.382
		c0.287,0.789,0.798,1.652,1.456,2.56c0,0-5.253-1.336-7.941-7.94c-2.688-6.605-1.832,5.504,2.327,9.662
		c4.158,4.158,17.267,13.114,17.808,11.634c0.344,0.562,0.539,1.053,0.539,1.454c0,3.18,6.116,2.936,6.116,2.936
		s6.116,0.244,6.116-2.936c0-0.401,0.195-0.893,0.54-1.454c0.54,1.48,13.649-7.476,17.807-11.634
		C275.921,327.599,276.776,315.489,274.089,322.095z"/>
	<g>
		<path fill="#BF503A" d="M264.668,324.943c-2.446,0-6.85,5.382-17.369,5.382s-14.922-5.382-17.369-5.382
			c-2.446,0-2.935,5.382-2.935,5.382c1.957,5.382,14.188,14.188,14.188,17.368c0,3.181,6.116,2.936,6.116,2.936
			s6.116,0.245,6.116-2.936c0-3.18,12.231-11.986,14.188-17.368C267.604,330.325,267.114,324.943,264.668,324.943z"/>
		<path fill="#231F20" d="M240.645,346.239c2.69-7.392-0.689-9.549-3.497-12.356c-6.722-6.723-8.696-0.998-8.696-0.998
			s-5.253-1.337-7.941-7.941c-2.688-6.605-1.832,5.504,2.327,9.663C226.996,338.765,240.105,347.721,240.645,346.239z"/>
		<path fill="#231F20" d="M253.954,346.239c-2.69-7.392,0.689-9.549,3.497-12.356c6.723-6.723,8.696-0.998,8.696-0.998
			s5.253-1.337,7.941-7.941c2.688-6.605,1.832,5.504-2.327,9.663C267.604,338.765,254.494,347.721,253.954,346.239z"/>
	</g>
</g>
</svg>
